<svg width="1em" height="1em" viewBox="0 0 24 24" fill="none" xmlns="http://www.w3.org/2000/svg" focusable="false" role="img"><path fill-rule="evenodd" clip-rule="evenodd" d="M9.707 3.707a1 1 0 0 0-1.414-1.414l-3 3a1 1 0 0 0 0 1.414l3 3a1 1 0 0 0 1.414-1.414L8.414 7H17a3 3 0 0 1 3 3v2a1 1 0 1 0 2 0v-2a5 5 0 0 0-5-5H8.414l1.293-1.293Zm4.586 16.586a1 1 0 0 0 1.414 1.414l3-3a1 1 0 0 0 0-1.414l-3-3a1 1 0 0 0-1.414 1.414L15.586 17H7a3 3 0 0 1-3-3v-2a1 1 0 1 0-2 0v2a5 5 0 0 0 5 5h8.586l-1.293 1.293Z" fill="#0067c5"></path></svg>
