<?xml version="1.0" encoding="UTF-8"?>
<svg id="a" xmlns="http://www.w3.org/2000/svg" width="287.36" height="410.27" viewBox="0 0 287.36 410.27">
    <path d="M32.78,190.97c-.9,1.7-3.4,.8-3.1-1.1L69.38,9.37c.5-2.4,3.6-3.3,5.2-1.3l31.6,37.5c1.4,1.7,1.7,4,.7,6L32.78,190.97ZM4.79,230.57c-.6,2.8-4.7,2.3-4.7-.5V62.07c0-2.2,2.6-3.3,4.2-1.9l28.2,25.3c1.3,1.2,1.9,3,1.6,4.8L4.79,230.57Zm275.3,59.4h-57.1c-2.6,0-5,1.4-6.3,3.6l-30.4,48.9c-1.3,2.2-3.7,3.6-6.3,3.6H114.08c-2.6,0-5-1.4-6.3-3.6l-32.9-57c-1.3-2.2-1.3-5,0-7.3l32.9-57c1.3-2.2,3.7-3.6,6.3-3.6h65.9c2.6,0,5,1.4,6.3,3.6l30.2,47c1.3,2.2,3.7,3.6,6.3,3.6h57.1c5.6,0,9.1-6,6.3-10.9l-63-103.7c-1.3-2.2-3.7-3.6-6.3-3.6l-69.7,.3,52.7-90.6c1.3-2.2,1.3-5,0-7.3L168.88,2.18c-1.7-2.9-5.9-2.9-7.5,0L.97,278.27c-1.3,2.2-1.3,5,0,7.3l69.9,121.1c1.3,2.2,3.7,3.6,6.3,3.6H216.98c2.6,0,5-1.4,6.3-3.6l63.1-105.8c2.8-4.9-.7-10.9-6.29-10.9Z"
          fill="#ffffff"/>
</svg>